<svg width="35" height="65" viewBox="0 0 35 65" fill="none" xmlns="http://www.w3.org/2000/svg">
<path d="M32.0833 0C32.6504 0 33.1366 0.211589 33.5417 0.634766C33.7037 0.761719 33.8252 0.909831 33.9062 1.0791C33.9873 1.24837 34.048 1.42822 34.0885 1.61865C34.129 1.80908 34.1493 1.99951 34.1493 2.18994C34.1493 2.38037 34.129 2.56022 34.0885 2.72949C34.048 2.89876 33.9873 3.06803 33.9062 3.2373C33.8252 3.40658 33.7037 3.57585 33.5417 3.74512L5.83332 32.6904L33.1771 61.2549C33.4201 61.5088 33.5923 61.8262 33.6936 62.207C33.7948 62.5879 33.7948 62.9688 33.6936 63.3496C33.5923 63.7305 33.4201 64.0479 33.1771 64.3018C32.772 64.7249 32.2757 64.9365 31.6884 64.9365C31.101 64.9365 30.6047 64.7249 30.1996 64.3018L1.39756 34.2139C0.992463 33.7907 0.789917 33.2829 0.789917 32.6904C0.789917 32.098 0.992463 31.5902 1.39756 31.167L30.625 0.634766C31.0301 0.211589 31.5162 0 32.0833 0Z" fill="white"/>
</svg>
