<svg width="31" height="58" viewBox="0 0 31 58" fill="none" xmlns="http://www.w3.org/2000/svg">
<path d="M2.26827 57.2697C1.75826 57.2722 1.31084 57.0882 0.926017 56.7177C0.541191 56.3472 0.347156 55.9013 0.34391 55.38C0.340665 54.8588 0.520029 54.4111 0.882004 54.037L25.6953 28.3934L0.949462 3.435C0.729264 3.17542 0.572585 2.8783 0.479426 2.54364C0.386266 2.20897 0.384238 1.88318 0.47334 1.56626C0.562443 1.24934 0.715471 0.960034 0.932423 0.698349C1.2944 0.324263 1.7395 0.135949 2.26772 0.133408C2.79595 0.130867 3.24336 0.314887 3.60997 0.685468L29.6214 27.0341C29.8047 27.2193 29.9426 27.4328 30.0352 27.6744C30.1278 27.9159 30.1748 28.1577 30.1763 28.3998C30.1778 28.6418 30.1337 28.8747 30.0441 29.0985C29.9544 29.3224 29.819 29.5278 29.638 29.7149L3.57624 56.7049C3.39526 56.892 3.18666 57.0326 2.95045 57.1268C2.71424 57.221 2.48684 57.2687 2.26827 57.2697Z" fill="white"/>
</svg>
