<svg width="12" height="12" viewBox="0 0 12 12" fill="none" xmlns="http://www.w3.org/2000/svg">
<path d="M5.8125 0C2.60234 0 0 2.60234 0 5.8125C0 9.02266 2.60234 11.625 5.8125 11.625C9.02266 11.625 11.625 9.02266 11.625 5.8125C11.625 2.60234 9.02266 0 5.8125 0ZM5.8125 10.5C3.22191 10.5 1.125 8.40349 1.125 5.8125C1.125 3.22193 3.22151 1.125 5.8125 1.125C8.40309 1.125 10.5 3.22151 10.5 5.8125C10.5 8.40309 8.40349 10.5 5.8125 10.5ZM8.32854 8.13131C8.10321 8.35894 7.26143 9.10153 5.88952 9.10153C3.95756 9.10153 2.59692 7.66188 2.59692 5.78355C2.59692 3.92843 4.00962 2.51634 5.87259 2.51634C7.1741 2.51634 7.95239 3.14025 8.15993 3.33148C8.2087 3.37633 8.24001 3.437 8.24831 3.50273C8.25662 3.56846 8.24138 3.63501 8.2053 3.69059L7.7798 4.34948C7.68977 4.48894 7.49934 4.52016 7.36966 4.41794C7.16822 4.25913 6.62402 3.88971 5.92338 3.88971C4.79128 3.88971 4.09723 4.71776 4.09723 5.76663C4.09723 6.74137 4.72741 7.72816 5.93184 7.72816C6.69724 7.72816 7.2641 7.28194 7.4723 7.09008C7.59581 6.97624 7.79095 6.99541 7.88995 7.13081L8.35554 7.76761C8.39523 7.82146 8.41432 7.88774 8.40937 7.95446C8.40442 8.02117 8.37574 8.08391 8.32854 8.13131Z" fill="white"/>
</svg>
