<svg width="24" height="25" viewBox="0 0 24 25" fill="none" xmlns="http://www.w3.org/2000/svg">
<g clip-path="url(#clip0)">
<path d="M19.0629 10.7613H19.0293C18.5695 10.7589 18.1252 10.9188 17.7831 11.2096C17.5063 10.4846 16.8027 9.9634 15.9786 9.9634C15.4735 9.96676 14.991 10.163 14.6411 10.5079C14.3193 9.89147 13.6738 9.47333 12.9316 9.47333H12.8957C12.498 9.46755 12.1098 9.58998 11.7952 9.82029V5.42583C11.7952 4.36387 10.9214 3.5 9.85862 3.5C8.79702 3.5 7.92781 4.36331 7.92722 5.42452L7.91835 14.1434L7.39691 13.5441C6.93965 13.0054 6.26658 12.6709 5.53836 12.6204C4.82511 12.5742 4.12348 12.809 3.59967 13.2696L3.14596 13.6254C2.99965 13.7401 2.9579 13.9358 3.04553 14.0953L7.45677 22.1189C8.26336 23.5853 9.79797 24.5 11.4618 24.5H16.433V24.4959C18.9536 24.4959 20.9973 22.4262 20.9999 19.8849C21.0008 18.7479 20.9963 17.9004 20.9971 17.2135C20.9997 15.3758 20.9977 14.6978 20.9928 12.6732C20.9902 11.6136 20.1228 10.7613 19.0629 10.7613Z" fill="white"/>
<path d="M19.0864 9.96568H19.0527C18.5924 9.96312 18.1477 10.1323 17.8053 10.44C17.5281 9.67294 16.8238 9.12156 15.9988 9.12156C15.4931 9.12511 15.0101 9.33269 14.6598 9.69758C14.3377 9.04547 13.6915 8.60311 12.9485 8.60311H12.9127C12.5145 8.59699 12.1259 8.72651 11.8109 8.97017V4.3212C11.8109 3.19775 10.9362 2.28384 9.8723 2.28384C8.80956 2.28384 7.93942 3.19716 7.93883 4.31982L7.92996 13.5436L7.40795 12.9097C6.95021 12.3397 6.27641 11.9859 5.54742 11.9325C4.83341 11.8836 4.13103 12.132 3.60665 12.6193L3.15246 12.9956C3.00599 13.117 2.9642 13.324 3.05193 13.4928L7.46788 21.9811C8.27533 23.5323 9.81158 24.5 11.4771 24.5H16.4537V24.4957C18.977 24.4957 21.0229 22.3061 21.0254 19.6177C21.0264 18.4148 21.0219 17.5182 21.0227 16.7916C21.0252 14.8475 21.0233 14.1301 21.0183 11.9883C21.0158 10.8674 20.1474 9.96568 19.0864 9.96568ZM20.2093 16.7888C20.2085 17.5156 20.2073 18.4157 20.2061 19.6186C20.204 21.8626 18.51 23.6924 16.4301 23.6924H11.4773C10.114 23.6924 8.85214 22.891 8.18445 21.6081L3.91871 13.4112L4.12925 13.2355C4.13457 13.2312 4.1397 13.226 4.14482 13.2215C4.50696 12.8807 4.99427 12.7056 5.49045 12.7381C5.99767 12.777 6.46566 13.025 6.78284 13.4226L8.01866 14.9263C8.12669 15.0582 8.30608 15.1077 8.46655 15.0503C8.62701 14.9929 8.73425 14.8408 8.73425 14.6704L8.74155 4.32022C8.74194 3.64248 9.25448 3.0911 9.87269 3.0911C10.4909 3.0911 11.0034 3.64307 11.0034 4.3212V10.5618C11.0034 10.5835 11.0025 10.6054 11.0025 10.6275C11.0025 10.6369 11.0034 10.6466 11.0034 10.6558V13.324C11.0034 13.547 11.1842 13.7277 11.4072 13.7277C11.6301 13.7277 11.8109 13.547 11.8109 13.324V10.5754C11.8109 9.92152 12.3104 9.41056 12.9127 9.41056H12.9485C13.5671 9.41056 14.0819 9.94971 14.0819 10.6278V13.0693C14.0819 13.2923 14.2626 13.4731 14.4856 13.4731C14.7085 13.4731 14.8893 13.2923 14.8893 13.0693V11.1538C14.8893 10.4755 15.3794 9.92369 16.0013 9.92369C16.6197 9.92369 17.1098 10.4753 17.1098 11.1538V12.9609C17.1098 13.1839 17.2906 13.3646 17.5135 13.3646C17.7365 13.3646 17.9172 13.1839 17.9172 12.9609V11.9823C17.9172 11.304 18.4341 10.7731 19.0527 10.7731H19.0864C19.7035 10.7731 20.2063 11.3131 20.2079 11.9892C20.2129 14.1295 20.2119 14.8461 20.2093 16.7888Z" fill="#232323"/>
<path d="M6.65617 4.49547C6.87912 4.49547 7.05989 4.3147 7.05989 4.09174C7.0664 2.55116 8.3172 1.30588 9.85759 1.30588C11.3982 1.30588 12.6488 2.55116 12.6553 4.09174C12.6553 4.3147 12.8361 4.49547 13.059 4.49547C13.282 4.49547 13.4627 4.3147 13.4627 4.09174C13.4553 2.10584 11.8435 0.5 9.85759 0.5C7.87188 0.5 6.25993 2.10584 6.25244 4.09174C6.25244 4.3147 6.43321 4.49547 6.65617 4.49547Z" fill="#232323"/>
</g>
<defs>
<clipPath id="clip0">
<rect width="24" height="24" fill="white" transform="translate(0 0.5)"/>
</clipPath>
</defs>
</svg>
