<svg xmlns="http://www.w3.org/2000/svg" viewBox="0 0 261.47 261.47"><title>2524621</title><g style="isolation:isolate"><path d="M128.79,111.52,95.48,181.93a15.41,15.41,0,1,1-27.87-13.18l33.55-70.94Z" style="fill:#fff"/><path d="M75.28,189.41a15.36,15.36,0,0,0,20.2-7.48l33.31-70.41L114,104.19Z" style="fill:#fff"/><path d="M101.16,97.81,67.61,168.75A15.42,15.42,0,0,0,75,189.28l.33.13L114,104.19Z" style="fill:#fff;opacity:0.25;mix-blend-mode:multiply"/><path d="M81.61,190.76A15.42,15.42,0,0,1,72.27,163c32.44-24.42,61.14-24.11,79.5-19.56a87.41,87.41,0,0,1,37.59,20.16A15.44,15.44,0,1,1,168.06,186c-5.55-5.25-35.33-29.84-77.14,1.64A15.45,15.45,0,0,1,81.61,190.76Z" style="fill:#fff"/><g style="opacity:0.5;mix-blend-mode:multiply"><path d="M175.69,189.94a15.3,15.3,0,0,1-7.63-3.94,53.93,53.93,0,0,0-25.89-13.14l-6.58-31.7a81.62,81.62,0,0,1,16.18,2.32,86.53,86.53,0,0,1,13.4,4.55Z" style="fill:#fff"/></g><g style="opacity:0.30000000000000004;mix-blend-mode:multiply"><path d="M81.61,190.76a15.45,15.45,0,0,0,9.31-3.12c41.81-31.48,71.59-6.89,77.14-1.64a15.51,15.51,0,0,0,21.87-.56,15.9,15.9,0,0,0,2.12-2.84c-63.11-52.6-113.4-9.09-123.54.94a13.06,13.06,0,0,0,.74,1.09A15.48,15.48,0,0,0,81.61,190.76Z" style="fill:#fff"/></g><path d="M192.82,168.75,144.73,67.08a15.42,15.42,0,0,0-27.88,13.19l48.09,101.66a15.42,15.42,0,1,0,27.88-13.18Z" style="fill:#fff"/><g style="opacity:0.16;mix-blend-mode:multiply"><path d="M192.82,168.75,144.73,67.08a15.42,15.42,0,0,0-20.53-7.34l61.16,129.58.11,0A15.42,15.42,0,0,0,192.82,168.75Z" style="fill:#fff"/></g><path d="M137.79,124.52,128.08,104l10.31-43.74a15.38,15.38,0,0,1,6.34,6.82l11.63,24.6Z" style="fill:#fff;opacity:0.4;mix-blend-mode:multiply"/><path d="M101.16,97.81,115.7,67.08a15.42,15.42,0,0,1,27.87,13.19l-14.78,31.25Z" style="fill:#fff"/><path d="M136.22,59.74a14.69,14.69,0,0,0-1.7-.68L114,104.19l14.78,7.33,14.78-31.25A15.42,15.42,0,0,0,136.22,59.74Z" style="fill:#fff"/><path d="M115.7,67.08,101.16,97.81,114,104.19l20.51-45.13A15.4,15.4,0,0,0,115.7,67.08Z" style="fill:#fff;opacity:0.25;mix-blend-mode:multiply"/><path d="M130.74,261.47C58.65,261.47,0,202.82,0,130.74S58.65,0,130.74,0,261.47,58.65,261.47,130.74,202.82,261.47,130.74,261.47Zm0-236.8A106.07,106.07,0,1,0,236.8,130.74,106.19,106.19,0,0,0,130.74,24.67Z" style="fill:#fff"/><path d="M130.74,0C58.65,0,0,58.65,0,130.74S58.65,261.47,130.74,261.47s130.73-58.65,130.73-130.73S202.82,0,130.74,0Zm0,249.14a118.41,118.41,0,1,1,118.4-118.4A118.4,118.4,0,0,1,130.74,249.14Z" style="fill:#fff;opacity:0.23;mix-blend-mode:multiply"/></g></svg>