<svg width="160" height="157" viewBox="0 0 160 157" fill="none" xmlns="http://www.w3.org/2000/svg">
<path d="M148.596 77.7954L150.271 77.9579L149.947 81.3182L156.647 81.9681L156.809 80.2879L158.484 80.4504L158.322 82.1306L160 82.2933L159.676 85.6537L149.623 84.6786L149.299 88.039L147.624 87.8765L148.596 77.7954Z" fill="white"/>
<path d="M150.766 97.6971L152.371 98.206L151.864 99.8155L150.259 99.3066L150.766 97.6971ZM146.542 99.8981L151.356 101.425L151.864 99.8155L153.468 100.324L152.961 101.934L154.565 102.443L156.087 97.6144L151.274 96.0876L150.766 97.6971L149.162 97.1881L149.669 95.5787L148.065 95.0697L146.542 99.8981ZM146.967 92.9513L148.572 93.4602L149.079 91.8508L157.102 94.3955L156.595 96.005L158.202 96.5148L155.665 104.562L154.058 104.052L153.55 105.665L145.527 103.12L146.035 101.508L144.431 100.999L146.967 92.9513Z" fill="white"/>
<path d="M144.865 112.678L146.321 113.526L145.475 114.985L144.02 114.138L144.865 112.678ZM140.265 113.902L144.63 116.445L145.475 114.985L146.931 115.833L146.085 117.293L147.54 118.141L150.076 113.762L145.711 111.218L144.865 112.678L143.41 111.83L144.255 110.37L142.8 109.523L140.265 113.902ZM142.19 107.215L143.646 108.063L144.491 106.603L151.767 110.842L150.921 112.302L152.379 113.151L148.153 120.45L146.695 119.6L145.849 121.063L138.573 116.823L139.419 115.361L137.964 114.513L142.19 107.215Z" fill="white"/>
<path d="M129.821 125.088L132.294 127.378L130.009 129.861L127.536 127.571L129.821 125.088ZM135.528 118.887L136.764 120.032L135.623 121.272L136.859 122.417L135.718 123.657L136.955 124.802L135.813 126.043L137.05 127.188L135.908 128.428L137.145 129.573L136.003 130.813L137.24 131.958L134.955 134.441L133.718 133.296L134.862 132.054L133.625 130.909L134.767 129.668L133.53 128.523L134.672 127.283L133.435 126.138L134.577 124.898L133.34 123.753L134.481 122.512L133.245 121.367L135.528 118.887ZM140.569 125.852L143.044 128.144L140.761 130.624L138.286 128.333L140.569 125.852Z" fill="white"/>
<path d="M96.8724 143.438L97.2255 145.089L93.9347 145.797L95.347 152.399L96.9924 152.045L97.3455 153.695L95.7001 154.05L96.0538 155.703L92.763 156.411L90.6439 146.506L87.3531 147.214L87 145.563L96.8724 143.438Z" fill="white"/>
<path d="M77.1643 151.905V150.217H78.8472V151.905H77.1643ZM80.53 155.281V150.217H78.8472V148.529H80.53V146.841H75.4815V151.905H77.1643V153.593H75.4815V155.281H80.53ZM73.7986 156.969V155.281H72.1157V146.841H73.7986V145.15H82.2129V146.841H83.8986V155.281H82.2129V156.969H73.7986Z" fill="white"/>
<path d="M63.1467 147.954L62.7811 149.602L61.1384 149.235L61.504 147.587L63.1467 147.954ZM60.5926 143.925L59.4958 148.868L61.1384 149.235L60.7728 150.883L59.1301 150.516L58.7645 152.164L63.6925 153.264L64.7894 148.321L63.1467 147.954L63.5123 146.306L65.155 146.673L65.5206 145.025L60.5926 143.925ZM67.5289 143.745L67.1633 145.392L68.8059 145.759L66.9778 153.997L65.3352 153.631L64.9689 155.281L56.7556 153.448L57.1218 151.797L55.4764 151.43L57.3045 143.191L58.95 143.559L59.3156 141.911L67.5289 143.745Z" fill="white"/>
<path d="M46.8572 137.333L45.4202 140.386L42.374 138.943L43.8111 135.89L46.8572 137.333ZM54.466 140.936L53.7475 142.463L52.2257 141.742L51.5072 143.268L49.9855 142.548L49.2669 144.074L47.7452 143.353L47.0267 144.88L45.5049 144.159L44.7864 145.686L43.2646 144.965L42.5461 146.491L39.5 145.049L40.2185 143.522L41.7429 144.244L42.4614 142.718L43.9831 143.438L44.7017 141.912L46.2234 142.633L46.9419 141.106L48.4637 141.827L49.1822 140.301L50.704 141.021L51.4225 139.495L54.466 140.936ZM49.3517 147.848L47.9134 150.903L44.8699 149.462L46.3082 146.406L49.3517 147.848Z" fill="white"/>
<path d="M24.5504 118.656L23.0921 119.499L21.4124 116.573L15.5792 119.943L16.4191 121.406L14.9608 122.248L14.1209 120.785L12.6601 121.629L10.9804 118.704L19.7326 113.648L18.0528 110.722L19.5111 109.88L24.5504 118.656Z" fill="white"/>
<path d="M11.2679 103.649L9.66524 104.164L9.1518 102.557L10.7544 102.042L11.2679 103.649ZM13.4462 99.4042L8.63836 100.949L9.1518 102.557L7.54918 103.072L7.03574 101.464L5.43312 101.979L6.97344 106.802L11.7813 105.257L11.2679 103.649L12.8705 103.134L13.3839 104.742L14.9865 104.227L13.4462 99.4042ZM17.1026 105.319L15.5 105.834L16.0134 107.442L8.00032 110.017L7.48688 108.409L5.88152 108.925L3.31432 100.888L4.91968 100.372L4.40536 98.7615L12.4185 96.1864L12.9328 97.7967L14.5354 97.2817L17.1026 105.319Z" fill="white"/>
<path d="M7.4365 87.9608L5.76026 88.1104L5.61118 86.429L7.28743 86.2794L7.4365 87.9608ZM10.4908 84.299L5.46211 84.7476L5.61118 86.429L3.93494 86.5785L3.78587 84.8971L2.10962 85.0467L2.55684 90.0908L7.58557 89.6422L7.4365 87.9608L9.11274 87.8113L9.26182 89.4927L10.9381 89.3432L10.4908 84.299ZM12.7634 90.875L11.0871 91.0246L11.2362 92.7059L2.85499 93.4536L2.70592 91.7722L1.02681 91.922L0.281439 83.5151L1.96055 83.3653L1.81122 81.681L10.1924 80.9333L10.3418 82.6176L12.018 82.4681L12.7634 90.875Z" fill="white"/>
<path d="M12.5612 69.0062L9.22434 68.5652L9.66437 65.2152L13.0012 65.6562L12.5612 69.0062ZM11.4621 77.374L9.79367 77.1535L10.0135 75.4799L8.34505 75.2594L8.56488 73.5859L6.89644 73.3654L7.11626 71.6918L5.44782 71.4713L5.66764 69.7978L3.9992 69.5772L4.21902 67.9037L2.55058 67.6832L2.9906 64.3332L4.65904 64.5537L4.43885 66.2301L6.10729 66.4506L5.88746 68.1242L7.5559 68.3447L7.33608 70.0182L9.00452 70.2387L8.7847 71.9123L10.4531 72.1328L10.2333 73.8064L11.9018 74.0269L11.4621 77.374ZM3.33973 74.5979L0 74.1566L0.439645 70.8094L3.77938 71.2508L3.33973 74.5979Z" fill="white"/>
<path d="M24.7901 37.7104L23.5494 36.5699L25.8233 34.0809L20.8605 29.5191L19.7235 30.7636L18.4828 29.6232L19.6198 28.3787L18.377 27.2363L20.6509 24.7472L28.0972 31.5919L30.3711 29.1029L31.6118 30.2433L24.7901 37.7104Z" fill="white"/>
<path d="M35.2441 20.2523L34.2691 18.8764L35.6408 17.8984L36.6157 19.2743L35.2441 20.2523ZM39.9373 21.0481L37.0124 16.9205L35.6408 17.8984L34.6658 16.5226L36.0375 15.5446L35.0625 14.1687L30.9475 17.1026L33.8724 21.2302L35.2441 20.2523L36.219 21.6281L34.8474 22.6061L35.8223 23.982L39.9373 21.0481ZM35.4256 26.3358L34.4507 24.9599L33.079 25.9379L28.2042 19.0585L29.5759 18.0806L28.5992 16.7023L35.4575 11.8125L36.4342 13.1908L37.8082 12.2111L42.683 19.0905L41.309 20.0701L42.284 21.446L35.4256 26.3358Z" fill="white"/>
<path d="M48.6354 11.9742L47.9798 10.4195L49.5297 9.76192L50.1853 11.3166L48.6354 11.9742ZM53.0463 13.7684L51.0797 9.10435L49.5297 9.76192L48.8742 8.20725L50.4241 7.54967L49.7685 5.99499L45.1188 7.96771L47.0854 12.6318L48.6354 11.9742L49.2909 13.5289L47.741 14.1864L48.3966 15.7411L53.0463 13.7684ZM47.5022 17.9534L46.8466 16.3987L45.2967 17.0563L42.0189 9.28286L43.5688 8.62529L42.9122 7.06795L50.6618 3.78008L51.3184 5.33742L52.871 4.67872L56.1488 12.4521L54.5963 13.1108L55.2518 14.6655L47.5022 17.9534Z" fill="white"/>
<path d="M68.2624 11.04L67.6698 7.71666L70.9858 7.12171L71.5784 10.445L68.2624 11.04ZM59.9796 12.5261L59.6833 10.8644L61.3398 10.5672L61.0435 8.90555L62.7001 8.60833L62.4038 6.94668L64.0603 6.64945L63.764 4.9878L65.4206 4.69058L65.1243 3.02892L66.7809 2.7317L66.4845 1.07005L69.8005 0.475093L70.0968 2.13675L68.4374 2.43448L68.7337 4.09613L67.0772 4.39335L67.3735 6.05501L65.7169 6.35223L66.0132 8.01388L64.3567 8.3111L64.653 9.97276L62.9964 10.27L63.2927 11.9316L59.9796 12.5261ZM60.1546 3.92059L59.5615 0.594446L62.8746 0L63.4677 3.32615L60.1546 3.92059Z" fill="white"/>
<path d="M102.238 13.2918L102.951 11.7627L106 13.1928L108.851 7.07635L107.327 6.36131L108.04 4.83221L109.564 5.54725L110.278 4.01553L113.327 5.44561L109.049 14.6228L112.097 16.0529L111.385 17.582L102.238 13.2918Z" fill="white"/>
<path d="M121.726 17.9174L122.741 16.5707L124.083 17.5884L123.069 18.9351L121.726 17.9174ZM122.382 22.6463L125.426 18.6061L124.083 17.5884L125.098 16.2417L126.441 17.2594L127.455 15.9127L123.427 12.8595L120.384 16.8997L121.726 17.9174L120.712 19.2641L119.369 18.2464L118.354 19.5931L122.382 22.6463ZM115.997 19.9221L117.012 18.5754L115.669 17.5577L120.742 10.824L122.085 11.8418L123.101 10.4927L129.814 15.5814L128.798 16.9304L130.143 17.9499L125.07 24.6835L123.725 23.664L122.71 25.0107L115.997 19.9221Z" fill="white"/>
<path d="M133.837 28.4605L135.118 27.366L136.21 28.6512L134.928 29.7456L133.837 28.4605ZM133.457 33.2197L137.301 29.9363L136.21 28.6512L137.491 27.5567L138.582 28.8419L139.863 27.7474L136.59 23.892L132.746 27.1753L133.837 28.4605L132.556 29.5549L131.465 28.2698L130.184 29.3642L133.457 33.2197ZM127.811 29.1735L129.093 28.0791L128.001 26.7939L134.408 21.3217L135.499 22.6068L136.782 21.5105L142.238 27.9362L140.954 29.0326L142.047 30.3199L135.641 35.7922L134.548 34.5048L133.267 35.5993L127.811 29.1735Z" fill="white"/>
<path d="M140.537 46.8131L143.514 45.2373L145.086 48.2256L142.109 49.8014L140.537 46.8131ZM136.61 39.3488L138.098 38.5609L138.883 40.0537L140.372 39.2658L141.157 40.7587L142.646 39.9708L143.431 41.4637L144.919 40.6758L145.705 42.1686L147.193 41.3807L147.979 42.8736L149.467 42.0857L151.039 45.074L149.551 45.8619L148.764 44.3665L147.276 45.1544L146.49 43.6615L145.002 44.4494L144.216 42.9565L142.728 43.7444L141.943 42.2516L140.454 43.0395L139.669 41.5466L138.181 42.3345L136.61 39.3488ZM144.837 36.9021L147.816 35.325L149.387 38.3107L146.408 39.8879L144.837 36.9021Z" fill="white"/>
</svg>
