<svg width="224" height="224" viewBox="0 0 224 224" fill="none" xmlns="http://www.w3.org/2000/svg">
<path d="M222.567 120.917L214.694 120.431L214.767 119.249L217.625 119.426C217.467 118.187 217.42 117.035 217.486 115.97C217.561 114.757 217.863 113.851 218.391 113.253C218.919 112.666 219.668 112.402 220.637 112.462L223.08 112.613L223.007 113.795L220.675 113.651C219.355 113.569 218.641 114.401 218.533 116.147C218.474 117.106 218.523 118.22 218.679 119.491L222.64 119.736L222.567 120.917Z" fill="white"/>
<path d="M221.748 128.555L215.44 127.301L220.523 134.722L220.311 135.789L212.574 134.252L212.799 133.122L219.108 134.376L214.024 126.955L214.236 125.888L221.973 127.425L221.748 128.555Z" fill="white"/>
<path d="M218.142 140.609L219.16 140.944L216.252 149.79L215.234 149.456L216.488 145.64L210.013 143.512L210.387 142.372L216.863 144.5L218.142 140.609Z" fill="white"/>
<path d="M204.267 160.03L203.328 159.583L203.748 158.702C203.973 158.23 204.26 157.888 204.609 157.677C204.958 157.465 205.339 157.398 205.75 157.476C205.26 156.25 205.372 154.885 206.088 153.383C206.575 152.363 207.115 151.663 207.709 151.285C208.313 150.911 208.937 150.877 209.582 151.185C210.738 151.736 210.994 152.921 210.351 154.742L208.883 158.899L208.897 158.906C209.552 159.218 210.158 159.223 210.716 158.921C211.273 158.62 211.765 158.021 212.192 157.126C212.582 156.308 212.742 155.575 212.673 154.927C212.604 154.279 212.318 153.836 211.818 153.598L211.731 153.556L212.234 152.502L212.32 152.543C212.84 152.791 213.227 153.17 213.48 153.681C213.742 154.196 213.849 154.79 213.799 155.464C213.755 156.152 213.554 156.871 213.196 157.622C212.627 158.816 211.919 159.619 211.073 160.031C210.227 160.443 209.327 160.422 208.374 159.967L205.962 158.818C205.673 158.68 205.405 158.659 205.159 158.754C204.922 158.854 204.726 159.067 204.57 159.395L204.267 160.03ZM207.034 153.816C206.653 154.616 206.45 155.376 206.426 156.096C206.411 156.822 206.575 157.444 206.919 157.962L208.002 158.479L209.395 154.552C209.612 153.923 209.694 153.418 209.639 153.037C209.589 152.671 209.4 152.41 209.073 152.254C208.37 151.919 207.69 152.439 207.034 153.816Z" fill="white"/>
<path d="M207.706 165.931L208.61 166.507L203.611 174.363L202.707 173.788L204.863 170.4L199.112 166.741L199.756 165.728L205.507 169.387L207.706 165.931Z" fill="white"/>
<path d="M195.42 180.864C194.811 181.606 194.165 182.041 193.48 182.169C192.795 182.297 192.14 182.104 191.513 181.59L191.352 181.458C190.742 180.957 190.436 180.354 190.435 179.649C190.427 178.953 190.724 178.238 191.327 177.504L195.072 172.94L201.157 177.934L200.406 178.849L198.415 177.215L195.42 180.864ZM192.284 180.65C192.664 180.961 193.057 181.07 193.465 180.977C193.866 180.892 194.262 180.61 194.655 180.132L197.599 176.545L195.125 174.515L192.181 178.102C191.789 178.58 191.59 179.024 191.585 179.434C191.573 179.852 191.753 180.213 192.124 180.518L192.284 180.65Z" fill="white"/>
<path d="M182.985 196.573C182.311 197.13 181.62 197.5 180.913 197.683C180.205 197.881 179.531 197.878 178.891 197.673C178.258 197.477 177.708 197.095 177.239 196.528L177.004 196.244C176.535 195.677 176.272 195.057 176.214 194.385C176.149 193.72 176.292 193.048 176.644 192.369C176.988 191.697 177.514 191.069 178.221 190.484C179.404 189.505 180.568 189.063 181.71 189.156C182.86 189.257 183.917 189.892 184.883 191.059L185.545 191.86C186.51 193.028 186.945 194.156 186.849 195.246C186.752 196.35 186.12 197.461 184.954 198.578L183.327 200.151C183.153 200.308 183.053 200.447 183.027 200.565C182.992 200.691 183.022 200.811 183.117 200.926L183.209 201.037L182.235 201.843L182.113 201.695C181.814 201.333 181.689 200.973 181.738 200.614C181.794 200.263 182.022 199.894 182.422 199.508L184.248 197.749C185.132 196.894 185.634 196.077 185.753 195.301C185.871 194.539 185.618 193.765 184.996 192.979C184.973 193.621 184.788 194.251 184.442 194.87C184.087 195.495 183.601 196.063 182.985 196.573ZM178.166 195.741C178.682 196.365 179.328 196.662 180.104 196.629C180.879 196.612 181.673 196.266 182.487 195.593C183.07 195.111 183.508 194.569 183.8 193.968C184.099 193.375 184.233 192.751 184.205 192.097L183.787 191.591C183.093 190.753 182.336 190.306 181.516 190.251C180.687 190.203 179.824 190.549 178.928 191.29C178.123 191.956 177.631 192.667 177.453 193.423C177.276 194.179 177.438 194.861 177.941 195.469L178.166 195.741Z" fill="white"/>
<path d="M164.206 200.7L165.21 200.072L168.835 205.863L173.378 203.019L171.748 200.264C171.107 199.18 170.812 198.276 170.862 197.552C170.909 196.844 171.304 196.257 172.045 195.793L172.601 195.445L173.161 196.34L172.822 196.552C172.316 196.869 172.057 197.27 172.046 197.755C172.026 198.246 172.259 198.899 172.745 199.715L174.888 203.319L168.392 207.386L164.206 200.7Z" fill="white"/>
<path d="M155.44 205.117C156.305 204.724 157.128 204.526 157.911 204.522C158.685 204.522 159.37 204.715 159.966 205.1C160.553 205.49 161.012 206.048 161.343 206.777L161.468 207.054C161.804 207.792 161.925 208.51 161.832 209.208C161.734 209.921 161.43 210.568 160.921 211.15C160.413 211.733 159.721 212.223 158.847 212.62C157.992 213.008 157.181 213.194 156.413 213.18C155.64 213.18 154.96 212.985 154.373 212.595C153.776 212.21 153.31 211.649 152.975 210.91L152.849 210.634C152.519 209.905 152.405 209.19 152.507 208.487C152.6 207.789 152.901 207.148 153.41 206.566C153.909 205.988 154.586 205.505 155.44 205.117ZM155.905 206.101C154.933 206.542 154.277 207.121 153.935 207.839C153.583 208.561 153.591 209.325 153.957 210.131L154.082 210.408C154.453 211.223 155.026 211.737 155.801 211.947C156.57 212.172 157.441 212.063 158.412 211.622C159.403 211.172 160.069 210.589 160.411 209.871C160.753 209.154 160.736 208.382 160.361 207.556L160.236 207.28C159.87 206.474 159.299 205.965 158.524 205.755C157.749 205.544 156.876 205.66 155.905 206.101Z" fill="white"/>
<path d="M143.126 218.444L142.796 217.441L147.919 215.757L145.785 209.266L146.91 208.897L149.373 216.39L143.126 218.444Z" fill="white"/>
<path d="M102.839 222.627L103.265 214.75L104.447 214.814L104.292 217.674C105.53 217.506 106.681 217.451 107.746 217.508C108.961 217.574 109.869 217.869 110.471 218.393C111.062 218.916 111.331 219.662 111.279 220.631L111.147 223.076L109.964 223.012L110.09 220.679C110.162 219.359 109.324 218.651 107.577 218.557C106.619 218.505 105.505 218.562 104.235 218.728L104.021 222.691L102.839 222.627Z" fill="white"/>
<path d="M95.3485 221.872L96.5536 215.554L89.1719 220.694L88.1032 220.49L89.5811 212.741L90.7127 212.957L89.5076 219.275L96.8893 214.135L97.958 214.339L96.4801 222.087L95.3485 221.872Z" fill="white"/>
<path d="M83.0521 218.286L82.725 219.307L73.857 216.466L74.1841 215.445L78.0086 216.67L80.0882 210.179L81.231 210.545L79.1514 217.036L83.0521 218.286Z" fill="white"/>
<path d="M63.7118 204.611L64.1523 203.669L65.0364 204.083C65.5099 204.304 65.8538 204.589 66.0681 204.936C66.2824 205.284 66.352 205.663 66.2769 206.076C67.4997 205.576 68.8648 205.679 70.3721 206.383C71.3964 206.862 72.0999 207.398 72.4829 207.989C72.8613 208.59 72.8992 209.214 72.5965 209.861C72.0543 211.021 70.8706 211.285 69.0455 210.656L64.8777 209.219L64.8709 209.234C64.5637 209.891 64.5629 210.497 64.8686 211.052C65.1742 211.607 65.7763 212.094 66.6749 212.515C67.4963 212.899 68.2304 213.054 68.8775 212.979C69.5245 212.905 69.9655 212.617 70.2004 212.114L70.2411 212.027L71.2991 212.522L71.2585 212.609C71.0145 213.131 70.6382 213.52 70.1295 213.777C69.6164 214.043 69.0228 214.154 68.3488 214.11C67.6606 214.071 66.9397 213.875 66.186 213.522C64.9879 212.962 64.1797 212.26 63.7615 211.417C63.3433 210.574 63.3579 209.674 63.8052 208.718L64.937 206.297C65.0726 206.007 65.0918 205.739 64.9947 205.494C64.8931 205.258 64.678 205.063 64.3495 204.91L63.7118 204.611ZM69.9461 207.332C69.1441 206.957 68.3826 206.76 67.6615 206.741C66.9359 206.731 66.3153 206.9 65.7995 207.248L65.2912 208.335L69.228 209.699C69.8587 209.911 70.3642 209.989 70.7444 209.931C71.1105 209.879 71.3703 209.688 71.5239 209.36C71.8538 208.654 71.3278 207.978 69.9461 207.332Z" fill="white"/>
<path d="M57.7833 208.056L57.2145 208.965L49.3215 204.024L49.8903 203.115L53.2943 205.246L56.9109 199.469L57.9281 200.105L54.3114 205.883L57.7833 208.056Z" fill="white"/>
<path d="M42.8297 195.922C42.0832 195.318 41.6435 194.675 41.5104 193.991C41.3774 193.307 41.5657 192.65 42.0754 192.02L42.2062 191.858C42.7025 191.244 43.303 190.934 44.0077 190.928C44.7041 190.915 45.4214 191.207 46.1596 191.804L50.7506 195.516L45.801 201.637L44.8804 200.893L46.5 198.89L42.8297 195.922ZM43.021 192.784C42.7125 193.166 42.6063 193.56 42.7025 193.967C42.7904 194.367 43.0748 194.762 43.5559 195.151L47.164 198.068L49.176 195.58L45.5679 192.663C45.0868 192.274 44.6414 192.078 44.2316 192.076C43.8135 192.067 43.4536 192.249 43.1518 192.623L43.021 192.784Z" fill="white"/>
<path d="M27.0452 183.615C26.4829 182.945 26.1077 182.257 25.9196 181.552C25.7164 180.845 25.7148 180.171 25.9147 179.53C26.1065 178.896 26.4843 178.342 27.0481 177.869L27.33 177.632C27.8938 177.159 28.5116 176.891 29.1833 176.829C29.8482 176.758 30.5213 176.897 31.2026 177.244C31.877 177.583 32.5091 178.104 33.0988 178.807C34.0861 179.984 34.5374 181.144 34.4525 182.287C34.3594 183.437 33.7328 184.499 32.5725 185.473L31.7758 186.141C30.6155 187.115 29.4903 187.558 28.4002 187.47C27.295 187.381 26.1798 186.757 25.0546 185.599L23.4696 183.984C23.3106 183.811 23.1716 183.712 23.0527 183.686C22.9269 183.652 22.8069 183.684 22.6925 183.78L22.5822 183.872L21.7696 182.904L21.9167 182.78C22.2763 182.479 22.6357 182.351 22.995 182.398C23.3462 182.451 23.7164 182.677 24.1056 183.074L25.8777 184.887C26.7398 185.765 27.5595 186.261 28.337 186.374C29.0995 186.486 29.8716 186.228 30.6534 185.6C30.0114 185.582 29.3799 185.402 28.7586 185.06C28.1306 184.709 27.5594 184.228 27.0452 183.615ZM27.842 178.79C27.221 179.311 26.9296 179.959 26.9677 180.735C26.9909 181.509 27.3418 182.301 28.0206 183.11C28.5075 183.69 29.0525 184.124 29.6558 184.411C30.2509 184.706 30.8755 184.836 31.5295 184.802L32.032 184.381C32.8655 183.681 33.3068 182.921 33.3558 182.1C33.3981 181.271 33.0455 180.411 32.2982 179.52C31.6262 178.72 30.9116 178.233 30.1544 178.061C29.3972 177.889 28.7163 178.056 28.1116 178.564L27.842 178.79Z" fill="white"/>
<path d="M22.8007 164.901L23.4363 165.9L17.6721 169.567L20.5495 174.09L23.2923 172.439C24.3714 171.791 25.2729 171.489 25.997 171.534C26.7062 171.576 27.2956 171.965 27.7652 172.703L28.1173 173.257L27.2264 173.824L27.0117 173.486C26.691 172.982 26.2881 172.727 25.803 172.719C25.3121 172.703 24.6605 172.94 23.8481 173.432L20.2598 175.601L16.1456 169.135L22.8007 164.901Z" fill="white"/>
<path d="M18.331 156.208C18.7299 157.069 18.9344 157.891 18.9443 158.674C18.9498 159.448 18.7622 160.134 18.3815 160.733C17.9964 161.323 17.4408 161.786 16.7149 162.122L16.439 162.25C15.7034 162.591 14.9861 162.717 14.2872 162.629C13.5742 162.537 12.9245 162.238 12.3383 161.734C11.7521 161.229 11.2573 160.541 10.8539 159.67C10.4594 158.819 10.2665 158.009 10.2752 157.24C10.2698 156.467 10.4596 155.786 10.8448 155.196C11.2254 154.596 11.7836 154.126 12.5192 153.786L12.795 153.658C13.521 153.322 14.2357 153.202 14.9391 153.3C15.638 153.388 16.2805 153.684 16.8667 154.188C17.4485 154.683 17.9366 155.356 18.331 156.208ZM17.3505 156.679C16.9022 155.711 16.3181 155.059 15.598 154.723C14.8734 154.376 14.1094 154.389 13.306 154.761L13.0302 154.889C12.2171 155.266 11.7083 155.842 11.5037 156.619C11.2849 157.39 11.3996 158.26 11.8479 159.228C12.3051 160.215 12.8937 160.877 13.6138 161.213C14.3339 161.55 15.1053 161.528 15.928 161.147L16.2039 161.019C17.0073 160.647 17.5113 160.073 17.7159 159.296C17.9205 158.52 17.7987 157.647 17.3505 156.679Z" fill="white"/>
<path d="M4.96076 144.165L5.96144 143.828L7.68379 148.937L14.1579 146.755L14.5361 147.877L7.06132 150.397L4.96076 144.165Z" fill="white"/>
<path d="M0.385145 103.924L8.26469 104.289L8.20988 105.472L5.34895 105.339C5.52658 106.576 5.59071 107.727 5.54133 108.792C5.48504 110.007 5.19726 110.917 4.67798 111.523C4.1592 112.118 3.415 112.393 2.44538 112.349L0 112.235L0.0548091 111.052L2.38831 111.161C3.70955 111.222 4.41067 110.379 4.49165 108.631C4.53609 107.672 4.47023 106.559 4.29408 105.291L0.330336 105.107L0.385145 103.924Z" fill="white"/>
<path d="M1.08961 96.2208L7.41674 97.3775L2.22046 90.0353L2.41612 88.9651L10.1755 90.3837L9.96834 91.5169L3.64121 90.3601L8.83749 97.7024L8.64182 98.7726L0.882433 97.354L1.08961 96.2208Z" fill="white"/>
<path d="M4.45312 84.2907L3.42979 83.9713L6.20384 75.0821L7.22716 75.4015L6.0308 79.2351L12.5373 81.2656L12.1799 82.4111L5.67332 80.3806L4.45312 84.2907Z" fill="white"/>
<path d="M18.0816 64.492L19.027 64.9255L18.6201 65.8127C18.4023 66.2878 18.1204 66.6338 17.7745 66.8507C17.4286 67.0676 17.0492 67.14 16.6363 67.068C17.1451 68.2871 17.0527 69.6529 16.3591 71.1654C15.8878 72.1932 15.358 72.9007 14.7696 73.2881C14.1716 73.671 13.5477 73.7135 12.8981 73.4156C11.7346 72.882 11.4609 71.7004 12.0771 69.8706L13.4827 65.6923L13.4682 65.6856C12.8089 65.3832 12.2028 65.3869 11.6501 65.6967C11.0973 66.0065 10.6141 66.6122 10.2006 67.5139C9.8227 68.3381 9.67325 69.0734 9.75231 69.7199C9.83137 70.3663 10.123 70.8052 10.6272 71.0364L10.7144 71.0764L10.2276 72.1381L10.1403 72.098C9.61672 71.8579 9.22469 71.4845 8.96419 70.9778C8.69401 70.4667 8.57858 69.8739 8.61791 69.1996C8.65199 68.5112 8.84243 67.7888 9.18925 67.0325C9.74059 65.8303 10.4363 65.0169 11.2764 64.5924C12.1164 64.168 13.0164 64.1758 13.9763 64.616L16.4051 65.7298C16.6959 65.8632 16.9638 65.8804 17.2087 65.7815C17.4438 65.6781 17.637 65.4616 17.7882 65.132L18.0816 64.492ZM15.4071 70.7465C15.7761 69.9417 15.9676 69.1787 15.9815 68.4575C15.9857 67.7319 15.8121 67.1125 15.4607 66.5993L14.3699 66.0991L13.0352 70.046C12.8274 70.6782 12.7537 71.1843 12.8143 71.5641C12.8695 71.9297 13.062 72.1881 13.3917 72.3393C14.0995 72.6639 14.7713 72.1329 15.4071 70.7465Z" fill="white"/>
<path d="M14.4113 58.8602L13.4985 58.298L18.3814 50.3689L19.2942 50.9311L17.1883 54.3507L22.9921 57.9248L22.3629 58.9465L16.5591 55.3725L14.4113 58.8602Z" fill="white"/>
<path d="M26.5548 43.5863C27.1529 42.8355 27.7934 42.391 28.4761 42.253C29.1588 42.115 29.8172 42.2985 30.4513 42.8036L30.6139 42.9332C31.2313 43.425 31.5458 44.0233 31.5572 44.7279C31.5753 45.4242 31.2886 46.1436 30.6971 46.8861L27.0185 51.504L20.8613 46.5992L21.599 45.6731L23.6139 47.2782L26.5548 43.5863ZM29.6936 43.7547C29.3098 43.449 28.9148 43.3457 28.5085 43.4448C28.1089 43.5356 27.7164 43.823 27.3309 44.3069L24.4398 47.9361L26.9428 49.9299L29.8338 46.3007C30.2193 45.8168 30.4116 45.37 30.4108 44.9602C30.4166 44.542 30.2317 44.1834 29.8563 43.8843L29.6936 43.7547Z" fill="white"/>
<path d="M38.3234 28.0359C38.9873 27.4664 39.6709 27.0837 40.3742 26.8878C41.0787 26.677 41.7527 26.668 42.396 26.8609C43.0324 27.0458 43.5902 27.4175 44.0695 27.9761L44.3091 28.2554C44.7883 28.814 45.0628 29.4288 45.1325 30.0998C45.2103 30.7638 45.0793 31.4384 44.7395 32.1235C44.4077 32.8016 43.8937 33.4393 43.1975 34.0366C42.0317 35.0368 40.8767 35.5006 39.7324 35.4282C38.5812 35.3478 37.5125 34.7327 36.5262 33.5832L35.8491 32.7938C34.8628 31.6442 34.4076 30.5239 34.4835 29.4329C34.5606 28.3268 35.1721 27.2048 36.3181 26.067L37.9158 24.4645C38.0869 24.3036 38.1846 24.1636 38.2089 24.0444C38.2412 23.9183 38.2088 23.7986 38.1115 23.6852L38.0178 23.5759L38.9771 22.7529L39.1021 22.8986C39.4077 23.2548 39.5392 23.6129 39.4966 23.9727C39.447 24.3244 39.2256 24.6971 38.8324 25.0906L37.0387 26.8824C36.1702 27.754 35.6835 28.5791 35.5786 29.3578C35.4748 30.1214 35.7412 30.8907 36.3779 31.6656C36.3892 31.0234 36.5624 30.3899 36.8977 29.765C37.241 29.1332 37.7163 28.5568 38.3234 28.0359ZM43.157 28.78C42.6291 28.1647 41.9776 27.8804 41.2025 27.927C40.4285 27.9586 39.6408 28.3182 38.8393 29.0058C38.2645 29.4989 37.8367 30.0486 37.5558 30.655C37.268 31.2533 37.1445 31.8793 37.1852 32.5329L37.6124 33.0308C38.3208 33.8566 39.0858 34.2895 39.9072 34.3296C40.7368 34.3628 41.5928 34.0009 42.4752 33.2438C43.2686 32.5632 43.7472 31.8434 43.9112 31.0843C44.0751 30.3253 43.9001 29.6462 43.3862 29.0471L43.157 28.78Z" fill="white"/>
<path d="M57.4008 23.2843L56.4066 23.9272L52.6969 18.1901L48.1959 21.1005L49.8663 23.8311C50.5228 24.9055 50.8313 25.8048 50.7915 26.5291C50.755 27.2387 50.3694 27.8309 49.635 28.3059L49.0841 28.6621L48.5107 27.7753L48.8466 27.5581C49.3482 27.2338 49.6009 26.829 49.6047 26.3438C49.6175 25.8529 49.3751 25.203 48.8776 24.3942L46.682 20.8219L53.1177 16.6604L57.4008 23.2843Z" fill="white"/>
<path d="M66.0028 18.7546C65.1443 19.16 64.3236 19.3705 63.5408 19.3863C62.7675 19.3975 62.0798 19.215 61.4775 18.8388C60.8849 18.458 60.4178 17.906 60.0762 17.1825L59.9464 16.9076C59.6003 16.1746 59.4685 15.4583 59.551 14.7587C59.6387 14.045 59.9325 13.3931 60.4325 12.8032C60.9325 12.2132 61.6165 11.7133 62.4846 11.3034C63.3334 10.9027 64.1419 10.7038 64.91 10.7068C65.6833 10.6955 66.3662 10.8803 66.9588 11.2611C67.5611 11.6373 68.0353 12.1919 68.3814 12.925L68.5112 13.1999C68.8528 13.9233 68.9775 14.637 68.8853 15.3411C68.8027 16.0407 68.5114 16.6854 68.0115 17.2754C67.5211 17.8608 66.8516 18.3539 66.0028 18.7546ZM65.5238 17.7776C66.4883 17.3222 67.1362 16.7332 67.4674 16.0106C67.8082 15.2835 67.7896 14.5196 67.4116 13.719L67.2818 13.4441C66.8993 12.6339 66.319 12.1294 65.5409 11.9305C64.768 11.7175 63.8992 11.8387 62.9347 12.2941C61.9508 12.7586 61.2933 13.3522 60.9621 14.0748C60.6309 14.7974 60.6589 15.5686 61.046 16.3885L61.1758 16.6634C61.5538 17.4639 62.1318 17.9636 62.9099 18.1625C63.6879 18.3613 64.5592 18.233 65.5238 17.7776Z" fill="white"/>
<path d="M78.3993 5.12731L78.7404 6.12671L73.6374 7.8683L75.8441 14.3341L74.7236 14.7165L72.1758 7.25133L78.3993 5.12731Z" fill="white"/>
<path d="M118.018 0.321016L117.714 8.20314L116.531 8.15746L116.642 5.29559C115.407 5.48276 114.256 5.55576 113.19 5.5146C111.975 5.46768 111.063 5.18693 110.453 4.67235C109.854 4.15818 109.573 3.41612 109.61 2.44618L109.705 0L110.888 0.045683L110.798 2.37994C110.747 3.70163 111.595 4.39621 113.343 4.46371C114.302 4.50075 115.415 4.42631 116.682 4.24038L116.835 0.275333L118.018 0.321016Z" fill="white"/>
<path d="M125.97 0.9702L124.862 7.306L132.164 2.05368L133.236 2.24115L131.876 10.0112L130.742 9.81267L131.85 3.47687L124.548 8.72919L123.476 8.54172L124.835 0.7717L125.97 0.9702Z" fill="white"/>
<path d="M137.753 4.18173L138.064 3.15602L146.974 5.8628L146.663 6.88851L142.82 5.72115L140.839 12.2428L139.691 11.894L141.672 5.37234L137.753 4.18173Z" fill="white"/>
<path d="M157.872 17.7244L157.445 18.6729L156.555 18.2727C156.078 18.0584 155.73 17.7791 155.511 17.4348C155.291 17.0906 155.216 16.7117 155.285 16.2983C154.07 16.8162 152.703 16.7339 151.186 16.0516C150.154 15.588 149.443 15.0634 149.051 14.478C148.664 13.8828 148.617 13.2593 148.91 12.6075C149.435 11.44 150.614 11.1576 152.449 11.76L156.637 13.1346L156.644 13.12C156.941 12.4584 156.933 11.8524 156.619 11.302C156.305 10.7515 155.696 10.2729 154.791 9.86612C153.964 9.49433 153.228 9.35037 152.582 9.43424C151.936 9.51811 151.499 9.81298 151.272 10.3189L151.233 10.4064L150.167 9.92748L150.207 9.83992C150.443 9.31457 150.813 8.91977 151.318 8.65551C151.827 8.38152 152.419 8.26168 153.094 8.29599C153.782 8.32495 154.506 8.51001 155.265 8.85118C156.471 9.39356 157.29 10.0832 157.721 10.9201C158.151 11.7569 158.15 12.6569 157.717 13.6201L156.621 16.0571C156.49 16.349 156.475 16.6169 156.576 16.8611C156.681 17.0955 156.899 17.287 157.23 17.4357L157.872 17.7244ZM151.598 15.0965C152.405 15.4595 153.169 15.6453 153.891 15.6538C154.616 15.6526 155.234 15.4744 155.745 15.1192L156.237 14.0247L152.28 12.7194C151.647 12.5164 151.14 12.4465 150.761 12.5098C150.395 12.5678 150.138 12.7622 149.99 13.093C149.67 13.8032 150.206 14.471 151.598 15.0965Z" fill="white"/>
<path d="M163.431 13.9799L163.987 13.063L171.951 17.8875L171.396 18.8044L167.961 16.7238L164.43 22.5537L163.403 21.9319L166.935 16.1021L163.431 13.9799Z" fill="white"/>
<path d="M178.869 26.056C179.624 26.6487 180.073 27.2859 180.216 27.9675C180.359 28.6492 180.18 29.309 179.68 29.9467L179.551 30.1103C179.064 30.7313 178.468 31.0501 177.764 31.0666C177.067 31.0898 176.346 30.8084 175.599 30.2223L170.955 26.5774L175.814 20.3847L176.746 21.1156L175.156 23.1421L178.869 26.056ZM178.723 29.196C179.026 28.81 179.126 28.4142 179.024 28.0087C178.931 27.6097 178.641 27.2193 178.154 26.8374L174.504 23.9728L172.528 26.4902L176.178 29.3548C176.665 29.7367 177.113 29.9257 177.523 29.9219C177.941 29.9247 178.298 29.7372 178.595 29.3596L178.723 29.196Z" fill="white"/>
<path d="M194.544 37.7537C195.118 38.4134 195.506 39.0942 195.707 39.7961C195.923 40.499 195.936 41.1729 195.748 41.8176C195.568 42.4554 195.2 43.0159 194.645 43.4991L194.368 43.7408C193.813 44.2241 193.2 44.503 192.529 44.5776C191.866 44.6602 191.19 44.5341 190.503 44.1993C189.822 43.8725 189.181 43.3631 188.579 42.6713C187.57 41.5128 187.098 40.3612 187.162 39.2164C187.234 38.0647 187.841 36.9915 188.983 35.9969L189.768 35.314C190.91 34.3194 192.027 33.8561 193.119 33.924C194.225 33.993 195.352 34.5964 196.498 35.7341L198.112 37.3201C198.274 37.49 198.415 37.5867 198.534 37.6101C198.661 37.6415 198.78 37.6082 198.893 37.5101L199.001 37.4156L199.831 38.3689L199.686 38.495C199.332 38.8032 198.975 38.9372 198.615 38.8972C198.263 38.8502 197.889 38.6315 197.493 38.2412L195.688 36.4606C194.81 35.5985 193.981 35.1178 193.202 35.0185C192.437 34.9203 191.67 35.1923 190.9 35.8346C191.542 35.8412 192.177 36.0099 192.804 36.3405C193.439 36.6793 194.018 37.1503 194.544 37.7537ZM193.835 42.5925C194.446 42.0602 194.726 41.4067 194.673 40.6319C194.636 39.8581 194.271 39.073 193.578 38.2766C193.08 37.7054 192.527 37.2816 191.919 37.0051C191.319 36.7217 190.692 36.6027 190.038 36.6482L189.544 37.079C188.723 37.7934 188.296 38.5615 188.262 39.3832C188.234 40.213 188.603 41.0663 189.366 41.9432C190.052 42.7316 190.776 43.205 191.536 43.3635C192.296 43.5219 192.974 43.342 193.569 42.8237L193.835 42.5925Z" fill="white"/>
<path d="M199.422 56.789L198.772 55.7995L204.482 52.0478L201.538 47.5683L198.82 49.2587C197.75 49.9231 196.853 50.2381 196.129 50.2037C195.419 50.1723 194.824 49.7911 194.344 49.0602L193.983 48.5119L194.866 47.932L195.086 48.2663C195.414 48.7655 195.82 49.0153 196.305 49.0156C196.796 49.0247 197.445 48.7776 198.25 48.2741L201.806 46.0524L206.014 52.4574L199.422 56.789Z" fill="white"/>
<path d="M204.024 65.3881C203.612 64.5327 203.395 63.7136 203.374 62.9309C203.357 62.1578 203.534 61.4687 203.906 60.8636C204.282 60.2682 204.831 59.797 205.552 59.45L205.826 59.3182C206.556 58.9666 207.271 58.8295 207.971 58.9069C208.686 58.9893 209.34 59.2782 209.934 59.7738C210.527 60.2694 211.032 60.9497 211.448 61.8147C211.856 62.6605 212.06 63.4675 212.063 64.2356C212.08 65.0088 211.9 65.6931 211.524 66.2885C211.152 66.8936 210.601 67.3719 209.871 67.7234L209.597 67.8553C208.876 68.2022 208.163 68.3322 207.458 68.2452C206.758 68.1678 206.111 67.8814 205.518 67.3858C204.929 66.8998 204.431 66.2339 204.024 65.3881ZM204.997 64.9019C205.46 65.863 206.053 66.5065 206.778 66.8323C207.508 67.1677 208.272 67.1435 209.07 66.7596L209.343 66.6277C210.151 66.2392 210.651 65.6551 210.844 64.8756C211.051 64.1011 210.924 63.2333 210.461 62.2721C209.989 61.2918 209.391 60.6387 208.666 60.3129C207.941 59.987 207.17 60.0207 206.353 60.4139L206.079 60.5457C205.281 60.9297 204.786 61.5114 204.593 62.2909C204.4 63.0704 204.534 63.9407 204.997 64.9019Z" fill="white"/>
<path d="M217.708 77.6071L216.711 77.9557L214.931 72.866L208.482 75.1213L208.091 74.0037L215.537 71.3998L217.708 77.6071Z" fill="white"/>
</svg>
